<svg xmlns="http://www.w3.org/2000/svg" width="750" height="300" viewBox="0 0 750 300" fill="none">
  <defs>
    <linearGradient id="bg" x1="24" y1="24" x2="726" y2="276" gradientUnits="userSpaceOnUse">
      <stop stop-color="#F8FAFC"/>
      <stop offset="1" stop-color="#ECFCCB"/>
    </linearGradient>
  </defs>
  <rect width="750" height="300" rx="28" fill="#F8FAFC"/>
  <rect x="24" y="24" width="702" height="252" rx="28" fill="url(#bg)" stroke="#C7D2FE"/>
  <rect x="54" y="46" width="642" height="208" rx="24" fill="#FFFFFF" fill-opacity="0.88" stroke="#CBD5E1"/>
  <rect x="598" y="40" width="92" height="34" rx="17" fill="#0F172A"/>
  <text x="644" y="61" text-anchor="middle" font-family="Arial, sans-serif" font-size="14" font-weight="700" fill="#F8FAFC">AWS</text>

  <text x="76" y="84" font-family="Arial, sans-serif" font-size="18" font-weight="700" fill="#0F172A">Sources</text>
  <rect x="78" y="100" width="96" height="46" rx="12" fill="#EFF6FF" stroke="#2563EB" stroke-width="2"/>
  <text x="126" y="128" text-anchor="middle" font-family="Arial, sans-serif" font-size="16" font-weight="700" fill="#1D4ED8">Runbooks</text>
  <rect x="78" y="154" width="96" height="46" rx="12" fill="#ECFEFF" stroke="#0F766E" stroke-width="2"/>
  <text x="126" y="182" text-anchor="middle" font-family="Arial, sans-serif" font-size="16" font-weight="700" fill="#115E59">API Docs</text>
  <path d="M90 216H162L150 234H102L90 216Z" fill="#FFF7ED" stroke="#F59E0B" stroke-width="2"/>
  <path d="M96 214V206C96 198 110 192 126 192C142 192 156 198 156 206V214" fill="#FFEDD5" stroke="#F59E0B" stroke-width="2"/>
  <text x="126" y="222" text-anchor="middle" font-family="Arial, sans-serif" font-size="16" font-weight="700" fill="#B45309">S3</text>

  <path d="M192 150H272" stroke="#0F172A" stroke-width="3" stroke-linecap="round"/>
  <path d="M264 142L272 150L264 158" stroke="#0F172A" stroke-width="3" stroke-linecap="round" stroke-linejoin="round"/>

  <rect x="286" y="82" width="184" height="136" rx="22" fill="#F8FAFC" stroke="#94A3B8" stroke-width="2"/>
  <text x="378" y="112" text-anchor="middle" font-family="Arial, sans-serif" font-size="20" font-weight="700" fill="#0F172A">Ingestion Flow</text>
  <rect x="312" y="128" width="132" height="26" rx="13" fill="#DBEAFE"/>
  <text x="378" y="145" text-anchor="middle" font-family="Arial, sans-serif" font-size="13" font-weight="700" fill="#1D4ED8">extract</text>
  <rect x="312" y="160" width="132" height="26" rx="13" fill="#CCFBF1"/>
  <text x="378" y="177" text-anchor="middle" font-family="Arial, sans-serif" font-size="13" font-weight="700" fill="#115E59">normalize</text>
  <rect x="312" y="192" width="132" height="26" rx="13" fill="#FEF3C7"/>
  <text x="378" y="209" text-anchor="middle" font-family="Arial, sans-serif" font-size="13" font-weight="700" fill="#B45309">version</text>

  <path d="M486 150H546" stroke="#0F172A" stroke-width="3" stroke-linecap="round"/>
  <path d="M538 142L546 150L538 158" stroke="#0F172A" stroke-width="3" stroke-linecap="round" stroke-linejoin="round"/>

  <text x="566" y="84" font-family="Arial, sans-serif" font-size="18" font-weight="700" fill="#0F172A">Metadata</text>
  <rect x="562" y="100" width="104" height="32" rx="16" fill="#EFF6FF" stroke="#2563EB"/>
  <text x="614" y="121" text-anchor="middle" font-family="Arial, sans-serif" font-size="14" font-weight="700" fill="#1D4ED8">service</text>
  <rect x="574" y="138" width="104" height="32" rx="16" fill="#ECFEFF" stroke="#0F766E"/>
  <text x="626" y="159" text-anchor="middle" font-family="Arial, sans-serif" font-size="14" font-weight="700" fill="#115E59">document type</text>
  <rect x="554" y="176" width="104" height="32" rx="16" fill="#FEF3C7" stroke="#F59E0B"/>
  <text x="606" y="197" text-anchor="middle" font-family="Arial, sans-serif" font-size="14" font-weight="700" fill="#B45309">owner</text>
  <rect x="572" y="214" width="104" height="32" rx="16" fill="#FCE7F3" stroke="#DB2777"/>
  <text x="624" y="235" text-anchor="middle" font-family="Arial, sans-serif" font-size="14" font-weight="700" fill="#9D174D">permissions</text>
</svg>
